<?xml version="1.0" encoding="iso-8859-1"?>
<!-- Generator: Adobe Illustrator 16.0.0, SVG Export Plug-In . SVG Version: 6.00 Build 0)  -->
<!DOCTYPE svg PUBLIC "-//W3C//DTD SVG 1.1//EN" "http://www.w3.org/Graphics/SVG/1.1/DTD/svg11.dtd">
<svg version="1.1" id="Capa_1" xmlns="http://www.w3.org/2000/svg" xmlns:xlink="http://www.w3.org/1999/xlink" x="0px" y="0px"
	 width="47px" height="47px" viewBox="0 0 47 47" style="enable-background:new 0 0 47 47;" xml:space="preserve">
<g>
	<g>
		<path d="M8.714,3.918H4.701C2.114,3.918,0,6.032,0,8.616v29.768c0,2.584,2.114,4.698,4.701,4.698h4.013v-9.398h3.918V25.83H8.714
			V3.918z"/>
		<path d="M42.299,3.918H16.547v9.399h-3.915v7.853h3.915v21.912h25.752c2.588,0,4.701-2.114,4.701-4.698V8.616
			C47,6.032,44.887,3.918,42.299,3.918z M36.297,31.489c0,0,0,0,0,0.004c0,1.806-2.102,3.269-4.695,3.269
			c-2.593,0-4.695-1.463-4.695-3.269c0-0.354,2.605-10.702,2.605-10.702c-1.445-0.756-2.443-2.259-2.443-4.009
			c0-2.507,2.029-4.543,4.543-4.543c2.513,0,4.535,2.036,4.535,4.543c0,1.75-0.99,3.253-2.438,4.009c0,0,2.57,10.325,2.578,10.629
			l0.018,0.069H36.297z"/>
	</g>
</g>
<g>
</g>
<g>
</g>
<g>
</g>
<g>
</g>
<g>
</g>
<g>
</g>
<g>
</g>
<g>
</g>
<g>
</g>
<g>
</g>
<g>
</g>
<g>
</g>
<g>
</g>
<g>
</g>
<g>
</g>
</svg>
