<?xml version="1.0" encoding="utf-8"?>
<!-- Generator: Adobe Illustrator 16.0.0, SVG Export Plug-In . SVG Version: 6.00 Build 0)  -->
<!DOCTYPE svg PUBLIC "-//W3C//DTD SVG 1.1//EN" "http://www.w3.org/Graphics/SVG/1.1/DTD/svg11.dtd">
<svg version="1.1" id="Capa_1" xmlns="http://www.w3.org/2000/svg" xmlns:xlink="http://www.w3.org/1999/xlink" x="0px" y="0px"
	 width="595.279px" height="841.891px" viewBox="0 0 595.279 841.891" enable-background="new 0 0 595.279 841.891"
	 xml:space="preserve">
<g>
	<g>
		<path fill="#ECF0F1" d="M191.033,554.903L109.88,599.17c-4.762,2.597-9.042,5.788-13.023,9.268
			c47.314,39.895,108.392,63.962,175.125,63.962c66.24,0,126.928-23.708,174.108-63.059c-4.352-3.674-9.072-6.979-14.307-9.586
			l-86.9-43.445c-11.229-5.614-18.32-17.089-18.32-29.641v-34.096c2.442-2.781,5.234-6.353,8.221-10.571
			c11.844-16.729,20.804-35.132,27.014-54.438c11.146-3.438,19.356-13.732,19.356-25.966v-36.395c0-8.005-3.562-15.159-9.094-20.167
			v-52.61c0,0,10.808-81.872-100.068-81.872s-100.068,81.872-100.068,81.872v52.61c-5.542,5.008-9.094,12.162-9.094,20.167v36.395
			c0,9.586,5.04,18.022,12.583,22.897c9.094,39.586,32.905,68.077,32.905,68.077v33.254
			C208.307,537.938,201.677,549.095,191.033,554.903z"/>
		<g>
			<path fill="#556080" d="M276.631,128.478C126.446,125.912,2.607,245.583,0.041,395.769
				c-1.458,85.156,36.497,161.69,96.928,212.586c3.951-3.448,8.19-6.609,12.901-9.176l81.153-44.266
				c10.643-5.81,17.273-16.966,17.273-29.097v-33.254c0,0-23.822-28.491-32.905-68.077c-7.533-4.876-12.583-13.302-12.583-22.898
				v-36.394c0-8.005,3.562-15.159,9.094-20.167v-52.61c0,0-10.808-81.872,100.068-81.872s100.068,81.872,100.068,81.872v52.61
				c5.543,5.008,9.094,12.162,9.094,20.167v36.394c0,12.234-8.211,22.528-19.356,25.967c-6.21,19.306-15.17,37.708-27.014,54.438
				c-2.987,4.218-5.778,7.79-8.222,10.571v34.095c0,12.553,7.093,24.037,18.32,29.642l86.901,43.445
				c5.214,2.606,9.925,5.901,14.266,9.565c58.604-48.875,96.467-121.951,97.873-204.243
				C546.488,254.882,426.826,131.043,276.631,128.478z"/>
		</g>
	</g>
	<g>
		<path fill="#3D324C" d="M592.273,695.934l-69.761-69.761l66.538-33.264l-181.017-66.692l66.702,181.017l33.264-66.548
			l69.761,69.761c2.002,2.001,4.629,3.007,7.257,3.007c2.627,0,5.255-1.006,7.256-3.007
			C596.285,706.434,596.285,699.946,592.273,695.934z"/>
	</g>
</g>
<g opacity="0.6">
	<path fill="#BC961B" stroke="#BC961B" stroke-width="4" stroke-miterlimit="10" d="M110.217,411.7l-4.752,20.234h-6.11
		l15.546-64.329h7.128l15.614,64.329h-6.313l-4.888-20.234H110.217z M125.219,405.209l-4.48-18.516
		c-1.019-4.2-1.697-8.018-2.376-11.74h-0.136c-0.679,3.818-1.425,7.731-2.308,11.644l-4.48,18.612H125.219z"/>
	<path fill="#BC961B" stroke="#BC961B" stroke-width="4" stroke-miterlimit="10" d="M144.361,368.463
		c3.598-0.763,7.875-1.336,12.559-1.336c8.486,0,14.528,2.768,18.533,8.017c4.073,5.25,6.449,12.694,6.449,23.098
		c0,10.499-2.308,19.088-6.585,25.006c-4.277,6.013-11.337,9.258-20.23,9.258c-4.209,0-7.739-0.286-10.726-0.763V368.463z
		 M150.267,425.348c1.494,0.382,3.666,0.478,5.974,0.478c12.627,0,19.483-9.926,19.483-27.297
		c0.068-15.176-6.042-24.815-18.533-24.815c-3.055,0-5.363,0.382-6.924,0.859V425.348z"/>
	<path fill="#BC961B" stroke="#BC961B" stroke-width="4" stroke-miterlimit="10" d="M189.569,368.463
		c3.598-0.763,7.875-1.336,12.559-1.336c8.486,0,14.528,2.768,18.533,8.017c4.073,5.25,6.449,12.694,6.449,23.098
		c0,10.499-2.308,19.088-6.585,25.006c-4.277,6.013-11.337,9.258-20.23,9.258c-4.209,0-7.739-0.286-10.726-0.763V368.463z
		 M195.475,425.348c1.494,0.382,3.666,0.478,5.974,0.478c12.627,0,19.483-9.926,19.483-27.297
		c0.068-15.176-6.042-24.815-18.533-24.815c-3.055,0-5.363,0.382-6.924,0.859V425.348z"/>
	<path fill="#BC961B" stroke="#BC961B" stroke-width="4" stroke-miterlimit="10" d="M249.168,368.368
		c2.852-0.668,6.585-1.241,11.337-1.241c5.838,0,10.115,1.909,12.83,5.345c2.512,3.054,4.005,7.731,4.005,13.458
		c0,5.822-1.222,10.403-3.53,13.744c-3.123,4.677-8.214,7.063-13.985,7.063c-1.765,0-3.394-0.095-4.752-0.573v25.77h-5.906V368.368z
		 M255.074,399.387c1.29,0.477,2.919,0.668,4.888,0.668c7.128,0,11.473-4.867,11.473-13.744c0-8.495-4.277-12.599-10.794-12.599
		c-2.58,0-4.548,0.286-5.567,0.668V399.387z"/>
	<path fill="#BC961B" stroke="#BC961B" stroke-width="4" stroke-miterlimit="10" d="M291.187,367.604v26.915h22.131v-26.915h5.974
		v64.329h-5.974v-30.16h-22.131v30.16h-5.906v-64.329H291.187z"/>
	<path fill="#BC961B" stroke="#BC961B" stroke-width="4" stroke-miterlimit="10" d="M368.643,399.101
		c0,22.143-9.572,33.882-21.248,33.882c-12.084,0-20.569-13.171-20.569-32.642c0-20.425,9.028-33.787,21.248-33.787
		C360.565,366.555,368.643,380.012,368.643,399.101z M333.139,400.151c0,13.744,5.295,26.056,14.595,26.056
		c9.369,0,14.664-12.122,14.664-26.724c0-12.79-4.752-26.152-14.596-26.152C338.027,373.331,333.139,386.025,333.139,400.151z"/>
	<path fill="#BC961B" stroke="#BC961B" stroke-width="4" stroke-miterlimit="10" d="M385,374.667h-13.917v-7.063h33.876v7.063
		h-13.984v57.266H385V374.667z"/>
	<path fill="#BC961B" stroke="#BC961B" stroke-width="4" stroke-miterlimit="10" d="M449.15,399.101
		c0,22.143-9.572,33.882-21.248,33.882c-12.084,0-20.569-13.171-20.569-32.642c0-20.425,9.028-33.787,21.248-33.787
		C441.072,366.555,449.15,380.012,449.15,399.101z M413.646,400.151c0,13.744,5.295,26.056,14.595,26.056
		c9.369,0,14.664-12.122,14.664-26.724c0-12.79-4.752-26.152-14.596-26.152C418.533,373.331,413.646,386.025,413.646,400.151z"/>
</g>
</svg>
