<?xml version="1.0" encoding="utf-8"?>
<!-- Generator: Adobe Illustrator 16.0.0, SVG Export Plug-In . SVG Version: 6.00 Build 0)  -->
<!DOCTYPE svg PUBLIC "-//W3C//DTD SVG 1.1//EN" "http://www.w3.org/Graphics/SVG/1.1/DTD/svg11.dtd">
<svg version="1.1" id="Layer_1" xmlns="http://www.w3.org/2000/svg" xmlns:xlink="http://www.w3.org/1999/xlink" x="0px" y="0px"
	 width="595.279px" height="841.891px" viewBox="0 0 595.279 841.891" enable-background="new 0 0 595.279 841.891"
	 xml:space="preserve">
<path fill="#8B7E7F" d="M297.64,529.178c-115.895,0-212.869,80.961-237.479,189.407H535.12
	C510.51,610.139,413.534,529.178,297.64,529.178z"/>
<path fill="#D6CED1" d="M401.351,146.448l-103.711,85.09l-103.711-85.09c-82.623,38.95-139.813,122.981-139.813,220.381
	c0,134.494,109.029,243.524,243.524,243.524s243.524-109.029,243.524-243.524C541.164,269.429,483.974,185.398,401.351,146.448z"/>
<path fill="#C2B8B9" d="M193.929,146.448c-2.928,9.815-4.521,20.206-4.521,30.973c0,59.775,48.457,108.233,108.232,108.233
	s108.232-48.458,108.232-108.233c0-10.768-1.594-21.158-4.521-30.973c-31.467-14.834-66.616-23.143-103.711-23.143
	S225.396,131.613,193.929,146.448z"/>
<circle fill="#605353" cx="297.64" cy="366.83" r="135.292"/>
<path fill="#463836" d="M297.64,448.004c-44.76,0-81.174-36.415-81.174-81.175s36.414-81.174,81.174-81.174
	s81.175,36.415,81.175,81.174S342.4,448.004,297.64,448.004z"/>
<path fill="#605353" d="M297.64,417.544c-13.563,0-26.305-5.271-35.875-14.84c-3.962-3.962-3.962-10.386,0-14.35
	c3.963-3.962,10.388-3.963,14.35,0c5.738,5.737,13.383,8.896,21.524,8.896c8.145,0,15.786-3.159,21.522-8.896
	c11.87-11.87,11.87-31.18,0-43.049c-3.962-3.962-3.962-10.387,0-14.35c3.964-3.962,10.388-3.962,14.352,0
	c19.78,19.781,19.78,51.968,0,71.749C323.945,412.272,311.204,417.544,297.64,417.544z"/>
<circle fill="#F14742" cx="297.64" cy="177.421" r="10.146"/>
<g opacity="0.6">
	<path fill="#22EFEF" stroke="#22EFEF" stroke-width="4" stroke-miterlimit="10" d="M95.428,399.394l-7.186,29.004h-9.24
		l23.51-92.21h10.779l23.612,92.21h-9.547l-7.392-29.004H95.428z M118.116,390.091l-6.776-26.542
		c-1.54-6.02-2.566-11.492-3.593-16.828h-0.205c-1.027,5.473-2.156,11.082-3.491,16.691l-6.775,26.678H118.116z"/>
	<path fill="#22EFEF" stroke="#22EFEF" stroke-width="4" stroke-miterlimit="10" d="M189.67,331.262v80.034
		c0,5.883,0.103,12.586,0.411,17.101h-8.11l-0.411-11.492h-0.205c-2.772,7.388-8.829,12.997-16.939,12.997
		c-12.011,0-21.251-13.544-21.251-33.655c-0.103-22.026,10.164-35.571,22.278-35.571c7.597,0,12.73,4.789,14.988,10.124h0.206
		v-39.538H189.67z M180.636,389.133c0-1.505-0.103-3.557-0.411-5.062c-1.334-7.661-6.262-13.955-13.038-13.955
		c-9.342,0-14.886,10.945-14.886,25.583c0,13.408,4.928,24.489,14.68,24.489c6.057,0,11.601-5.336,13.244-14.365
		c0.308-1.642,0.411-3.283,0.411-5.199V389.133z"/>
	<path fill="#22EFEF" stroke="#22EFEF" stroke-width="4" stroke-miterlimit="10" d="M247.57,331.262v80.034
		c0,5.883,0.103,12.586,0.411,17.101h-8.11l-0.411-11.492h-0.206c-2.771,7.388-8.829,12.997-16.939,12.997
		c-12.011,0-21.25-13.544-21.25-33.655c-0.103-22.026,10.163-35.571,22.277-35.571c7.597,0,12.73,4.789,14.988,10.124h0.206v-39.538
		H247.57z M238.536,389.133c0-1.505-0.103-3.557-0.411-5.062c-1.335-7.661-6.263-13.955-13.038-13.955
		c-9.342,0-14.886,10.945-14.886,25.583c0,13.408,4.928,24.489,14.681,24.489c6.057,0,11.601-5.336,13.243-14.365
		c0.308-1.642,0.411-3.283,0.411-5.199V389.133z"/>
	<path fill="#22EFEF" stroke="#22EFEF" stroke-width="4" stroke-miterlimit="10" d="M284.628,337.282
		c4.312-0.958,9.958-1.778,17.144-1.778c8.829,0,15.297,2.736,19.403,7.661c3.799,4.378,6.057,11.082,6.057,19.291
		c0,8.345-1.848,14.912-5.338,19.701c-4.723,6.704-12.422,10.124-21.148,10.124c-2.669,0-5.133-0.137-7.186-0.821v36.939h-8.932
		V337.282z M293.559,381.745c1.951,0.684,4.415,0.958,7.391,0.958c10.779,0,17.35-6.977,17.35-19.701
		c0-12.176-6.467-18.059-16.322-18.059c-3.901,0-6.879,0.41-8.418,0.958V381.745z"/>
	<path fill="#22EFEF" stroke="#22EFEF" stroke-width="4" stroke-miterlimit="10" d="M338.935,331.262h9.034v41.317h0.205
		c1.438-3.42,3.696-6.43,6.468-8.482c2.67-2.052,5.852-3.42,9.24-3.42c6.673,0,17.35,5.473,17.35,28.32v39.401h-9.034v-38.033
		c0-10.671-2.978-19.701-11.498-19.701c-5.853,0-10.472,5.472-12.114,12.039c-0.514,1.642-0.616,3.42-0.616,5.746v39.949h-9.034
		V331.262z"/>
	<path fill="#22EFEF" stroke="#22EFEF" stroke-width="4" stroke-miterlimit="10" d="M440.875,394.742
		c0,24.489-12.73,35.16-24.741,35.16c-13.449,0-23.817-13.134-23.817-34.066c0-22.163,10.882-35.16,24.639-35.16
		C431.225,360.676,440.875,374.494,440.875,394.742z M401.453,395.426c0,14.502,6.263,25.447,15.091,25.447
		c8.624,0,15.092-10.808,15.092-25.721c0-11.218-4.209-25.446-14.887-25.446C406.073,369.706,401.453,382.84,401.453,395.426z"/>
	<path fill="#22EFEF" stroke="#22EFEF" stroke-width="4" stroke-miterlimit="10" d="M463.152,343.165v19.017h12.936v9.167h-12.936
		v35.708c0,8.208,1.746,12.86,6.776,12.86c2.36,0,4.106-0.41,5.235-0.821l0.41,9.03c-1.745,0.957-4.517,1.642-8.007,1.642
		c-4.209,0-7.597-1.778-9.753-5.063c-2.566-3.557-3.49-9.439-3.49-17.238v-36.118h-7.7v-9.167h7.7v-15.87L463.152,343.165z"/>
	<path fill="#22EFEF" stroke="#22EFEF" stroke-width="4" stroke-miterlimit="10" d="M531.215,394.742
		c0,24.489-12.73,35.16-24.741,35.16c-13.449,0-23.817-13.134-23.817-34.066c0-22.163,10.882-35.16,24.639-35.16
		C521.565,360.676,531.215,374.494,531.215,394.742z M491.793,395.426c0,14.502,6.263,25.447,15.091,25.447
		c8.624,0,15.092-10.808,15.092-25.721c0-11.218-4.209-25.446-14.887-25.446C496.413,369.706,491.793,382.84,491.793,395.426z"/>
</g>
</svg>
